<svg id="visual" viewBox="0 0 900 600" width="900" height="600" xmlns="http://www.w3.org/2000/svg" xmlns:xlink="http://www.w3.org/1999/xlink" version="1.1"><rect x="0" y="0" width="900" height="600" fill="#ffffff"></rect><path d="M0 213L129 158L257 184L386 224L514 150L643 227L771 236L900 239L900 0L771 0L643 0L514 0L386 0L257 0L129 0L0 0Z" fill="#99a4b7"></path><path d="M0 152L129 146L257 160L386 188L514 158L643 127L771 147L900 120L900 0L771 0L643 0L514 0L386 0L257 0L129 0L0 0Z" fill="#727f9c"></path><path d="M0 87L129 134L257 115L386 146L514 132L643 94L771 139L900 155L900 0L771 0L643 0L514 0L386 0L257 0L129 0L0 0Z" fill="#4d5c81"></path><path d="M0 107L129 78L257 96L386 62L514 61L643 95L771 81L900 87L900 0L771 0L643 0L514 0L386 0L257 0L129 0L0 0Z" fill="#2a3a66"></path><path d="M0 72L129 55L257 29L386 32L514 24L643 65L771 52L900 49L900 0L771 0L643 0L514 0L386 0L257 0L129 0L0 0Z" fill="#001b4b"></path></svg>