<svg xmlns="http://www.w3.org/2000/svg" version="1.1" xmlns:xlink="http://www.w3.org/1999/xlink" xmlns:svgjs="http://svgjs.dev/svgjs" viewBox="0 0 800 800"><g transform="matrix(1,0,0,1,0,0)"><circle r="20" cx="684" cy="684" stroke-width="0.5" stroke="#e3e3e3" fill="none" opacity="0.01" transform="matrix(1.505487001855482,0.848048096156426,-0.23844571620474486,0.5299192642332049,-557.0048276512991,-151.18694415585242)"></circle><circle r="29.285714285714285" cx="663.7142857142857" cy="663.7142857142857" stroke-width="1.6071428571428572" stroke="#dddee5" fill="none" opacity="0.08071428571428571" transform="matrix(1.4115683390793028,0.8075489400586989,-0.2073635222029745,0.5898005674887673,-456.6713223837525,-158.93980301898648)"></circle><circle r="38.57142857142857" cx="643.4285714285714" cy="643.4285714285714" stroke-width="2.7142857142857144" stroke="#d6dae7" fill="none" opacity="0.15142857142857144" transform="matrix(1.3334544328305742,0.7628295718622665,-0.18062867588619003,0.6465996012157996,-370.0547719443335,-163.7716692312265)"></circle><circle r="47.85714285714286" cx="623.1428571428571" cy="623.1428571428571" stroke-width="3.8214285714285716" stroke="#cfd5e9" fill="none" opacity="0.22214285714285714" transform="matrix(1.2680591706152025,0.7141236928443482,-0.15730301123587498,0.7000195363833435,-295.3070679759811,-165.65729169107658)"></circle><circle r="57.142857142857146" cx="602.8571428571429" cy="602.8571428571429" stroke-width="4.928571428571429" stroke="#c8d0eb" fill="none" opacity="0.29285714285714287" transform="matrix(1.213098614379661,0.6616858375968594,-0.13668338727090756,0.7497812029677342,-231.05378198123037,-164.58681622583754)"></circle><circle r="66.42857142857143" cx="582.5714285714286" cy="582.5714285714286" stroke-width="6.0357142857142865" stroke="#c1cbed" fill="none" opacity="0.3635714285714286" transform="matrix(1.1668531651947593,0.6057900438408198,-0.11823069322258656,0.795624548881781,-176.23910667131508,-160.56583708904031)"></circle><circle r="75.71428571428572" cx="562.2857142857143" cy="562.2857142857143" stroke-width="7.142857142857143" stroke="#b9c6ef" fill="none" opacity="0.4342857142857143" transform="matrix(1.1280106566351678,0.5467284203183433,-0.10152279662849195,0.8373099989945234,-130.0222084846207,-153.6153677251467)"></circle><circle r="85" cx="542" cy="542" stroke-width="8.25" stroke="#b1c1f1" fill="none" opacity="0.505" transform="matrix(1.0955601800204333,0.48480962024633695,-0.08622245609669427,0.8746197071393959,-91.70801402785224,-143.77173095429316)"></circle><circle r="94.28571428571429" cx="521.7142857142858" cy="521.7142857142858" stroke-width="9.357142857142858" stroke="#a9bbf3" fill="none" opacity="0.5757142857142857" transform="matrix(1.0687187163830782,0.42035722830956546,-0.07205485858827743,0.9073586945678649,-60.698745391539035,-131.08636915097213)"></circle><circle r="103.57142857142858" cx="501.42857142857144" cy="501.42857142857144" stroke-width="10.464285714285715" stroke="#a0b6f5" fill="none" opacity="0.6464285714285715" transform="matrix(1.0468795948677572,0.3537080696225813,-0.058791496987866565,0.9353558688990341,-36.459886492700946,-115.62557540864623)"></circle><circle r="112.85714285714286" cx="481.14285714285717" cy="481.14285714285717" stroke-width="11.571428571428573" stroke="#97b0f7" fill="none" opacity="0.7171428571428572" transform="matrix(1.0295758700035285,0.28521044949780205,-0.04623830563771161,0.9584649182402357,-18.496050359308583,-97.47014709521511)"></circle><circle r="122.14285714285715" cx="460.8571428571429" cy="460.8571428571429" stroke-width="12.678571428571429" stroke="#8eaaf9" fill="none" opacity="0.7878571428571429" transform="matrix(1.0164541774926523,0.21522233321862194,-0.03422669475525081,0.9765650758059764,-6.333409929432719,-76.71496360983929)"></circle><circle r="131.42857142857144" cx="440.57142857142856" cy="440.57142857142856" stroke-width="13.785714285714286" stroke="#83a4fb" fill="none" opacity="0.8585714285714285" transform="matrix(1.0072561696897164,0.14410947532998,-0.0226065702423007,0.9895617510393769,0.49272199912348924,-53.46849054774276)"></circle><circle r="140.71428571428572" cx="420.2857142857143" cy="420.2857142857143" stroke-width="14.892857142857144" stroke="#789efd" fill="none" opacity="0.9292857142857143" transform="matrix(1.0018056261896522,0.07224350822261828,-0.011240704534482893,0.9973870239378937,2.446912957546715,-27.852212864204773)"></circle><circle r="150" cx="400" cy="400" stroke-width="16" stroke="#6b97ff" fill="none" opacity="1" transform="matrix(1,-1.2401310215141802e-16,1.2401310215141802e-16,1,-5.684341886080802e-14,5.684341886080802e-14)"></circle></g></svg>