<svg id="visual" viewBox="0 0 900 600" width="900" height="600" xmlns="http://www.w3.org/2000/svg" xmlns:xlink="http://www.w3.org/1999/xlink" version="1.1"><path d="M0 88L25 93.2C50 98.3 100 108.7 150 109C200 109.3 250 99.7 300 87.2C350 74.7 400 59.3 450 65.7C500 72 550 100 600 102.8C650 105.7 700 83.3 750 77.2C800 71 850 81 875 86L900 91L900 0L875 0C850 0 800 0 750 0C700 0 650 0 600 0C550 0 500 0 450 0C400 0 350 0 300 0C250 0 200 0 150 0C100 0 50 0 25 0L0 0Z" fill="#001b4b" stroke-linecap="round" stroke-linejoin="miter"></path></svg>